<?xml version="1.0" encoding="UTF-8"?>
<svg width="806px" height="811px" viewBox="0 0 806 811" version="1.1" xmlns="http://www.w3.org/2000/svg" xmlns:xlink="http://www.w3.org/1999/xlink">
    <title>A</title>
    <defs>
        <linearGradient x1="11.8057112%" y1="112.698413%" x2="65.6084502%" y2="2.63639683e-06%" id="linearGradient-1">
            <stop stop-color="#FFE900" offset="0%"></stop>
            <stop stop-color="#CEDD01" offset="51.5046%"></stop>
            <stop stop-color="#44D62C" offset="100%"></stop>
        </linearGradient>
    </defs>
    <g id="Page-1" stroke="none" stroke-width="1" fill="none" fill-rule="evenodd">
        <g id="Home" transform="translate(-742.000000, 0.000000)" fill="url(#linearGradient-1)">
            <g id="Intersect" transform="translate(742.000000, 0.000000)">
                <path d="M391.806338,0 L378.312009,0 L0,811 L13.4943087,811 L391.806338,0 Z M50.0486642,811 L36.5592297,811 L414.8701,0 L428.363141,0 L50.0486642,811 Z M86.5967079,811 L73.1201546,811 L451.432055,0 L464.907063,0 L86.5967079,811 Z M123.157118,811 L109.676313,811 L487.988858,0 L501.469018,0 L123.157118,811 Z M159.714436,811 L146.235564,811 L524.545661,0 L538.027109,0 L159.714436,811 Z M196.272527,811 L182.792367,811 L561.102464,0 L574.582624,0 L196.272527,811 Z M232.834482,811 L219.353034,811 L588.275323,20.1305648 L595.010895,34.5890213 L232.834482,811 Z M269.391285,811 L255.896956,811 L606.540844,59.3115195 L613.290585,73.7701048 L269.391285,811 Z M305.948088,811 L292.455047,811 L624.821821,98.4924743 L631.571562,112.95106 L305.948088,811 Z M629.71796,811 L626.726949,811 L791.948755,456.777084 L793.455854,459.995338 L629.71796,811 Z M666.274763,811 L663.27087,811 L808,500.737146 L808,507.18524 L666.274763,811 Z M702.836718,811 L699.827673,811 L808,579.105492 L808,585.554873 L702.836718,811 Z M739.38708,811 L736.387052,811 L808,657.484137 L808,663.900048 L739.38708,811 Z M775.938731,811 L772.94772,811 L808,735.855057 L808,742.270968 L775.938731,811 Z M773.683235,417.59806 L592.335473,806.348979 L593.82969,809.565946 L775.176165,420.802154 L773.683235,417.59806 Z M555.776094,727.98707 L737.122568,339.22199 L738.616785,342.440244 L557.269023,731.191163 L555.776094,727.98707 Z M700.561901,260.848495 L519.215426,649.612287 L520.709644,652.830541 L702.056118,264.065462 L700.561901,260.848495 Z M537.495116,688.793886 L718.842878,300.042967 L720.337096,303.24706 L538.989333,692.010852 L537.495116,688.793886 Z M755.402257,378.403589 L574.055783,767.167381 L575.550001,770.385635 L756.896475,381.620556 L755.402257,378.403589 Z M482.656047,571.237505 L664.002522,182.486586 L665.510908,185.703552 L484.163146,574.454471 L482.656047,571.237505 Z M682.282211,221.666897 L500.935737,610.431976 L502.442836,613.63607 L683.790598,224.885151 L682.282211,221.666897 Z M464.376358,532.057194 L645.722832,143.306275 L647.229931,146.510368 L465.883456,535.275448 L464.376358,532.057194 Z" id="Shape"></path>
            </g>
        </g>
    </g>
</svg>