<?xml version="1.0" encoding="UTF-8"?>
<svg width="588px" height="133px" viewBox="0 0 588 133" version="1.1" xmlns="http://www.w3.org/2000/svg" xmlns:xlink="http://www.w3.org/1999/xlink">
    <title>Logo 1 white</title>
    <defs>
        <polygon id="path-1" points="0 0.0254 63.3004 0.0254 63.3004 63.3614 0 63.3614"></polygon>
    </defs>
    <g id="Logo-1-white" stroke="none" stroke-width="1" fill="none" fill-rule="evenodd">
        <path d="M470.2234,121.1008 L470.2604,121.1008 C470.4974,121.1008 470.6354,121.0978 470.6354,121.0978 L470.2234,121.1008 Z" id="Fill-1" fill="#FFFFFF"></path>
        <path d="M87.0457,99.9866 C86.6917,82.0986 101.2237,66.7416 120.4197,67.0036 C126.1447,67.0036 131.6917,68.1366 137.1517,70.4926 L137.1517,84.3686 C132.0447,81.4886 126.7597,80.0036 121.2117,80.0036 C115.3127,80.0036 110.4687,81.9246 106.7717,85.7636 C103.0717,89.6026 101.2237,94.3146 101.2237,99.9866 C101.2237,105.6596 103.0717,110.3706 106.7717,114.2096 C110.4687,118.0496 115.3127,119.9696 121.2117,119.9696 C126.7597,119.9696 132.0447,118.4856 137.1517,115.6066 L137.1517,129.4826 C131.6917,131.8376 126.1447,132.9716 120.4197,132.9716 C101.2237,133.2316 86.6917,117.9636 87.0457,99.9866" id="Fill-3" fill="#FFFFFF"></path>
        <path d="M282.8455,67.008 C301.9945,66.655 316.1335,77.825 316.1335,98.668 C316.1335,119.512 301.9945,130.68 282.8455,130.328 L260.7445,130.328 L260.7445,67.008 L282.8455,67.008 Z M274.5235,78.353 L274.5235,118.985 L282.8455,118.985 C295.8215,118.985 302.3535,112.212 302.3535,98.668 C302.3535,85.125 295.8215,78.353 282.8455,78.353 L274.5235,78.353 Z" id="Fill-5" fill="#FFFFFF"></path>
        <polygon id="Fill-7" fill="#FFFFFF" points="392.6218 67.0002 392.6218 78.8752 363.5248 78.8752 363.5248 92.5972 389.4738 92.5972 389.4738 104.4742 363.5248 104.4742 363.5248 118.4612 392.6218 118.4612 392.6218 130.3362 350.4218 130.3362 350.4218 67.0002"></polygon>
        <polygon id="Fill-9" fill="#FFFFFF" points="485.2273 67.0002 498.1233 67.0002 498.1233 130.3362 484.6043 130.3362 484.6043 92.4732 484.4263 92.4732 464.1473 126.3842 463.6143 126.3842 443.3333 92.4732 443.1573 92.4732 443.1573 130.3362 429.5473 130.3362 429.5473 67.0002 442.5353 67.0002 463.8803 104.7722"></polygon>
        <polygon id="Fill-11" fill="#FFFFFF" points="573.5994 67.0002 587.7994 67.0002 565.4954 107.9032 565.4954 130.3362 552.0784 130.3362 552.0784 107.9032 529.7744 67.0002 543.9754 67.0002 558.7864 95.7642"></polygon>
        <polygon id="Fill-13" fill="#FFFFFF" points="207.9578 108.9074 200.1748 91.7834 192.4818 108.9074 187.4088 120.1824 182.8648 130.3364 168.5258 130.3364 200.0898 67.0004 200.2638 67.0004 231.8268 130.3364 217.5748 130.3364 213.0288 120.1824"></polygon>
        <g id="Group-17" transform="translate(0.000000, 66.975000)">
            <mask id="mask-2" fill="white">
                <use xlink:href="#path-1"></use>
            </mask>
            <g id="Clip-16"></g>
            <polygon id="Fill-15" fill="#FFFFFF" mask="url(#mask-2)" points="39.4314 41.9324 31.6494 24.8084 23.9554 41.9324 18.8834 53.2054 14.3394 63.3614 -0.0006 63.3614 31.5624 0.0254 31.7374 0.0254 63.3004 63.3614 49.0484 63.3614 44.5024 53.2054"></polygon>
        </g>
        <polygon id="Fill-18" fill="#D4D4D4" points="531.6501 1.1946 519.7451 18.5176 531.6501 35.8406 540.7291 35.8406 528.2651 18.5176 540.7291 1.1946"></polygon>
        <polygon id="Fill-20" fill="#D4D4D4" points="508.424 35.825 516.277 35.825 516.277 1.194 508.424 1.194"></polygon>
        <path d="M485.0339,12.6242 L485.0339,12.5232 C485.0339,9.3112 484.0309,6.5992 482.1309,4.6812 C479.8729,2.4002 476.4339,1.1942 472.1859,1.1942 L456.0389,1.1942 L456.0389,35.8402 L463.8079,35.8402 L463.8079,7.6642 L471.5419,7.6642 C475.5119,7.6642 477.7869,9.5822 477.7869,12.9242 L477.7869,13.0242 C477.7869,16.2372 475.4519,18.5172 471.6919,18.5172 L467.2429,18.5172 L479.2189,35.8402 L488.3469,35.8402 L478.4359,22.6062 C482.2009,20.6532 485.0339,17.1682 485.0339,12.6242" id="Fill-22" fill="#D4D4D4"></path>
        <polygon id="Fill-23" fill="#D4D4D4" points="0 35.841 7.693 35.841 7.693 0.878 0 0.878"></polygon>
        <polygon id="Fill-24" fill="#D4D4D4" points="76.9646 35.8694 84.1636 35.8694 84.1636 22.1304 100.8476 22.1304 100.8476 14.8224 84.1636 14.8224 84.1636 8.1884 103.0946 8.1884 103.0946 0.8814 76.9646 0.8814"></polygon>
        <polygon id="Fill-25" fill="#D4D4D4" points="125.913 35.841 133.605 35.841 133.605 0.878 125.913 0.878"></polygon>
        <polygon id="Fill-26" fill="#D4D4D4" points="202.748 35.841 210.441 35.841 210.441 0.878 202.748 0.878"></polygon>
        <polygon id="Fill-27" fill="#D4D4D4" points="233.4568 8.2307 243.8508 8.2307 243.8508 35.8407 251.5428 35.8407 251.5428 8.2307 261.9338 8.2307 261.9338 0.8797 233.4568 0.8797"></polygon>
        <polygon id="Fill-28" fill="#D4D4D4" points="297.9861 14.9123 289.6441 0.8783 280.6551 0.8783 294.0901 22.0553 294.0901 35.8413 301.7831 35.8413 301.7831 21.9063 315.2181 0.8783 306.4781 0.8783"></polygon>
        <polygon id="Fill-29" fill="#D4D4D4" points="369.3728 25.7336 369.2868 25.4776 361.2778 1.1926 355.1668 1.1926 347.0718 25.7336 346.9918 25.4766 339.5958 1.2936 332.0638 1.2936 343.7758 35.8406 349.9938 35.8406 358.1228 12.2766 366.2498 35.8406 372.4688 35.8406 384.1808 1.2936 376.8518 1.2936"></polygon>
        <path d="M427.614,18.3694 C427.614,24.8804 422.88,29.7904 416.6,29.7904 C410.368,29.7904 405.484,24.7284 405.484,18.2684 L405.484,18.1654 C405.484,11.6554 410.218,6.7454 416.499,6.7454 C422.731,6.7454 427.614,11.8074 427.614,18.2684 L427.614,18.3694 Z M416.6,0.1764 C406.14,0.1764 397.948,8.1224 397.948,18.2684 L397.948,18.3694 C397.948,28.6264 405.923,36.3594 416.499,36.3594 C426.958,36.3594 435.151,28.4144 435.151,18.2684 L435.151,18.1654 C435.151,7.9104 427.177,0.1764 416.6,0.1764 L416.6,0.1764 Z" id="Fill-30" fill="#D4D4D4"></path>
        <polygon id="Fill-31" fill="#D4D4D4" points="28.3572 10.3528 58.0992 36.7168 58.0992 26.3648 28.3572 -0.0002"></polygon>
        <polygon id="Fill-32" fill="#D4D4D4" points="153.3044 10.3528 183.0464 36.7168 183.0464 26.3648 153.3044 -0.0002"></polygon>
        <path d="M576.78,15.2297 C571.084,13.7007 568.951,12.6117 568.951,10.0617 L568.951,9.9587 C568.951,7.9667 570.751,6.6677 573.552,6.6077 C574.248,6.6007 578.947,6.6317 584.915,8.4597 L584.915,2.0317 C579.334,0.3217 574.859,0.1837 573.734,0.1777 C566.539,0.2687 561.704,4.0347 561.704,10.2797 L561.704,10.3807 C562.144,16.8557 566.935,18.9797 573.58,20.9957 C579.334,22.4817 580.785,23.7497 580.785,26.0167 L580.785,26.1197 C580.785,28.3487 578.532,29.8967 575.223,29.8967 L573.789,29.8967 C572.826,29.8977 568.26,29.8017 562.523,28.0427 L562.523,34.5007 C568.992,36.4827 573.985,36.3537 573.985,36.3537 L575.072,36.3577 C582.944,36.3577 587.832,32.6137 587.832,25.9487 L587.832,25.8467 C587.832,19.5517 583.242,17.2327 576.78,15.2297" id="Fill-33" fill="#D4D4D4"></path>
    </g>
</svg>